<?xml version="1.0" encoding="UTF-8" standalone="no"?>
<!-- Created with Inkscape (http://www.inkscape.org/) -->

<svg
   xmlns:dc="http://purl.org/dc/elements/1.1/"
   xmlns:cc="http://creativecommons.org/ns#"
   xmlns:rdf="http://www.w3.org/1999/02/22-rdf-syntax-ns#"
   xmlns:svg="http://www.w3.org/2000/svg"
   xmlns="http://www.w3.org/2000/svg"
   xmlns:sodipodi="http://sodipodi.sourceforge.net/DTD/sodipodi-0.dtd"
   xmlns:inkscape="http://www.inkscape.org/namespaces/inkscape"
   width="32px"
   height="32px"
   id="svg5913"
   version="1.1"
   inkscape:version="0.48.3.1 r9886"
   sodipodi:docname="github_black.svg"
   inkscape:export-filename="/home/andreas/src/web/andreas-marschke.github.com/img/github_black.png"
   inkscape:export-xdpi="720"
   inkscape:export-ydpi="720">
  <defs
     id="defs5915" />
  <sodipodi:namedview
     id="base"
     pagecolor="#ffffff"
     bordercolor="#666666"
     borderopacity="1.0"
     inkscape:pageopacity="0.0"
     inkscape:pageshadow="2"
     inkscape:zoom="11.197802"
     inkscape:cx="13.022448"
     inkscape:cy="16"
     inkscape:current-layer="layer1"
     showgrid="true"
     inkscape:grid-bbox="true"
     inkscape:document-units="px"
     inkscape:window-width="1440"
     inkscape:window-height="880"
     inkscape:window-x="-2"
     inkscape:window-y="-3"
     inkscape:window-maximized="1" />
  <metadata
     id="metadata5918">
    <rdf:RDF>
      <cc:Work
         rdf:about="">
        <dc:format>image/svg+xml</dc:format>
        <dc:type
           rdf:resource="http://purl.org/dc/dcmitype/StillImage" />
        <dc:title></dc:title>
      </cc:Work>
    </rdf:RDF>
  </metadata>
  <g
     id="layer1"
     inkscape:label="Layer 1"
     inkscape:groupmode="layer">
    <path
       d="m 22.500155,3.9014456 c 0.367241,0.9098699 0.605162,2.4210676 0.250163,3.5274993 1.451699,1.3523051 1.950455,4.6397531 1.249873,7.3262141 2.069101,0.172248 4.53338,-0.08287 6.12444,0.60989 -1.487166,-0.208548 -3.518288,-0.617766 -5.436413,-0.47531 -0.363475,0.02705 -0.902094,-0.01506 -0.875728,0.542771 2.220706,0.190398 4.426973,0.397234 6.250307,1.018081 -1.808267,-0.322238 -4.003235,-0.812958 -6.250307,-0.881446 -0.928145,1.998152 -2.795736,2.980276 -5.374264,3.187112 0.277156,0.657832 0.807928,0.9085 0.93756,1.966989 0.193351,1.5814 -0.302581,3.897339 0.18676,4.951376 0.234783,0.505103 0.617402,0.518458 0.875412,0.950278 -0.631528,0.815355 -2.197478,-0.09143 -2.375448,-0.950278 -0.305406,-1.47079 0.465171,-3.751114 -0.37446,-4.747965 0.05932,1.604001 -0.34778,3.857272 0.06246,5.290394 0.161648,0.56366 0.628389,0.781111 0.500012,1.289296 -2.935412,0.32532 -1.708767,-4.144924 -2.188376,-6.783444 -0.442886,0.03425 -0.24828,0.723581 -0.249849,1.01774 -0.01255,2.576537 0.483376,6.110543 -2.062196,5.765704 -0.07439,-0.541401 0.341502,-0.725636 0.500011,-1.220123 0.46423,-1.449901 -0.08694,-3.610028 0.125867,-5.359567 -0.971461,0.798918 0.102007,3.588797 -0.500012,5.01918 -0.346838,0.823232 -1.464568,1.181426 -2.31236,0.813985 0.110485,-0.612972 0.690538,-0.514006 0.93662,-1.0852 0.344013,-0.796179 0.0024,-1.943018 0.125239,-3.119994 C 10.82724,22.94604 9.432356,22.497788 8.7496651,21.265675 8.4442592,20.712631 8.368614,20.060277 7.9994902,19.570242 7.6322497,19.079865 7.0452929,19.013773 6.8751695,18.349778 c 2.2269837,-0.584892 2.3123592,2.500515 4.3124055,2.576879 0.613324,0.02432 0.932226,-0.193137 1.499723,-0.338675 0.158824,-0.778029 0.498756,-1.358128 1.000025,-1.764606 -2.488761,-0.37155 -4.5440515,-1.217042 -5.4998183,-3.254574 -2.262452,0.121567 -4.3328092,0.450997 -6.2503064,0.948909 1.7404728,-0.68968 3.887103,-0.936924 6.1881625,-1.018082 C 7.9897644,14.610648 6.8010981,14.855152 6.0631645,14.889397 4.6918198,14.95583 2.9654759,15.141777 1.875368,15.365049 3.4554437,14.750365 5.6726969,14.827072 7.8133634,14.822277 7.1586083,12.582704 7.385544,9.02507 8.8133873,7.7001593 8.4087951,6.5875637 8.5343474,4.7678253 9.0632364,3.9014456 c 1.5941996,0.078077 2.5609516,0.8365867 3.5625466,1.56051 1.242024,-0.3852479 2.548082,-0.5770154 4.249944,-0.4749671 0.715647,0.04315 1.460173,0.3941508 1.999106,0.3386752 0.528888,-0.054102 1.111765,-0.7016643 1.625274,-0.9489079 0.66888,-0.3222385 1.234808,-0.4451756 2.000048,-0.4753102 z"
       id="Github__x28_alt_x29_"
       inkscape:connector-curvature="0"
       style="fill:#020202;fill-opacity:1" />
  </g>
</svg>
