<?xml version="1.0" encoding="UTF-8" standalone="no"?>
<!-- Created with Inkscape (http://www.inkscape.org/) -->

<svg
   xmlns:dc="http://purl.org/dc/elements/1.1/"
   xmlns:cc="http://creativecommons.org/ns#"
   xmlns:rdf="http://www.w3.org/1999/02/22-rdf-syntax-ns#"
   xmlns:svg="http://www.w3.org/2000/svg"
   xmlns="http://www.w3.org/2000/svg"
   xmlns:sodipodi="http://sodipodi.sourceforge.net/DTD/sodipodi-0.dtd"
   xmlns:inkscape="http://www.inkscape.org/namespaces/inkscape"
   width="32px"
   height="32px"
   id="svg3909"
   version="1.1"
   inkscape:version="0.48.1 r9760"
   sodipodi:docname="google_plus_grey.svg">
  <defs
     id="defs3911" />
  <sodipodi:namedview
     id="base"
     pagecolor="#ffffff"
     bordercolor="#666666"
     borderopacity="1.0"
     inkscape:pageopacity="0.0"
     inkscape:pageshadow="2"
     inkscape:zoom="3.2189638"
     inkscape:cx="24.307293"
     inkscape:cy="16"
     inkscape:current-layer="g5270"
     showgrid="true"
     inkscape:grid-bbox="true"
     inkscape:document-units="px"
     inkscape:window-width="1438"
     inkscape:window-height="880"
     inkscape:window-x="0"
     inkscape:window-y="18"
     inkscape:window-maximized="0" />
  <metadata
     id="metadata3914">
    <rdf:RDF>
      <cc:Work
         rdf:about="">
        <dc:format>image/svg+xml</dc:format>
        <dc:type
           rdf:resource="http://purl.org/dc/dcmitype/StillImage" />
        <dc:title />
      </cc:Work>
    </rdf:RDF>
  </metadata>
  <g
     id="layer1"
     inkscape:label="Layer 1"
     inkscape:groupmode="layer">
    <g
       id="g5270"
       transform="matrix(0.86813183,0,0,0.83463193,1.8400571,1.9283231)">
      <path
         style="fill:#b8b8b8;fill-opacity:1"
         inkscape:connector-curvature="0"
         id="Google"
         d="m 22.340241,2.2678393 h -8.324584 c -2.181722,0 -4.9294676,0.2949373 -7.2318468,2.0320092 -1.7397705,1.3694916 -2.586073,3.2537189 -2.586073,4.9557226 0,2.8839479 2.4247434,5.8067229 6.7078628,5.8067229 0.404011,0 0.846643,-0.03757 1.294405,-0.07357 -0.202345,0.442409 -0.406403,0.812178 -0.406403,1.441819 0,1.146881 0.64703,1.84822 1.212371,2.51418 -1.816335,0.110212 -5.2117965,0.29494 -7.7185718,1.6995 -2.3840664,1.296848 -3.1127883,3.181076 -3.1127883,4.512997 -6.845e-4,2.736481 2.8290944,5.289485 8.6892881,5.289485 6.950884,0 10.629355,-3.512965 10.629355,-6.991489 0,-2.549247 -1.616723,-3.808529 -3.394777,-5.17677 l -1.455392,-1.034789 c -0.442634,-0.333451 -1.048649,-0.776172 -1.048649,-1.590541 0,-0.813116 0.606015,-1.331922 1.130341,-1.812528 1.696362,-1.219832 3.394775,-2.51418 3.394775,-5.2506609 0,-2.8113101 -1.941435,-4.2907009 -2.869769,-4.9929809 H 19.75656 L 22.340241,2.2678436 z M 18.786868,24.898283 c 0,2.292819 -2.062089,3.992945 -5.942225,3.992945 -4.3231117,0 -7.1125562,-1.886105 -7.1125562,-4.510185 0,-2.62752 2.5867556,-3.512338 3.4747576,-3.808529 1.6984136,-0.518491 3.8801356,-0.592068 4.2431296,-0.592068 0.404693,0 0.606698,0 0.931411,0.03632 3.072116,1.996629 4.405483,2.996038 4.405483,4.881518 z M 15.553081,12.991149 c -0.64703,0.590503 -1.739088,1.03479 -2.749797,1.03479 -3.4740732,0 -5.0494399,-4.1056609 -5.0494399,-6.5822687 0,-0.9618388 0.2023446,-1.9593704 0.888002,-2.7364812 0.6470301,-0.7395382 1.7777109,-1.2207708 2.8290949,-1.2207708 3.353418,0 5.092848,4.1419799 5.092848,6.8036297 0,0.6669 -0.08238,1.849159 -1.010708,2.701101 z" />
      <rect
         y="14.710634"
         x="19.260849"
         height="1.8161601"
         width="11.183722"
         id="rect4742"
         style="fill:#b8b8b8;fill-opacity:1;stroke:none" />
      <rect
         transform="matrix(0,-1,1,0,0,0)"
         y="24.034248"
         x="-21.437595"
         height="1.7683663"
         width="11.494381"
         id="rect4742-9"
         style="fill:#b8b8b8;fill-opacity:1;stroke:none" />
    </g>
  </g>
</svg>
