<?xml version="1.0" encoding="UTF-8" standalone="no"?>
<!-- Created with Inkscape (http://www.inkscape.org/) -->

<svg
   xmlns:dc="http://purl.org/dc/elements/1.1/"
   xmlns:cc="http://creativecommons.org/ns#"
   xmlns:rdf="http://www.w3.org/1999/02/22-rdf-syntax-ns#"
   xmlns:svg="http://www.w3.org/2000/svg"
   xmlns="http://www.w3.org/2000/svg"
   xmlns:sodipodi="http://sodipodi.sourceforge.net/DTD/sodipodi-0.dtd"
   xmlns:inkscape="http://www.inkscape.org/namespaces/inkscape"
   width="32px"
   height="32px"
   id="svg5294"
   version="1.1"
   inkscape:version="0.48.3.1 r9886"
   sodipodi:docname="lastfm_grey.svg"
   inkscape:export-filename="/home/andreas/src/web/andreas-marschke.github.com/img/lastfm_grey.png"
   inkscape:export-xdpi="720"
   inkscape:export-ydpi="720">
  <defs
     id="defs5296" />
  <sodipodi:namedview
     id="base"
     pagecolor="#ffffff"
     bordercolor="#666666"
     borderopacity="1.0"
     inkscape:pageopacity="0.0"
     inkscape:pageshadow="2"
     inkscape:zoom="7.9742432"
     inkscape:cx="28.465265"
     inkscape:cy="16"
     inkscape:current-layer="layer1"
     showgrid="true"
     inkscape:grid-bbox="true"
     inkscape:document-units="px"
     inkscape:window-width="1440"
     inkscape:window-height="880"
     inkscape:window-x="-2"
     inkscape:window-y="-3"
     inkscape:window-maximized="1" />
  <metadata
     id="metadata5299">
    <rdf:RDF>
      <cc:Work
         rdf:about="">
        <dc:format>image/svg+xml</dc:format>
        <dc:type
           rdf:resource="http://purl.org/dc/dcmitype/StillImage" />
        <dc:title></dc:title>
      </cc:Work>
    </rdf:RDF>
  </metadata>
  <g
     id="layer1"
     inkscape:label="Layer 1"
     inkscape:groupmode="layer">
    <g
       transform="matrix(0.33206472,0,0,-0.32688691,14.153608,22.581413)"
       id="g20"
       style="fill:#d7d7d7;fill-opacity:1">
      <path
         inkscape:connector-curvature="0"
         id="path22"
         style="fill:#d7d7d7;fill-opacity:1;fill-rule:nonzero;stroke:none"
         d="m 0,0 -3.2,8.699 c 0,0 -5.2,-5.8 -12.999,-5.8 -6.901,0 -11.8,6 -11.8,15.6 0,12.299 6.199,16.699 12.3,16.699 8.799,0 11.598,-5.699 13.999,-12.999 l 3.2,-10 C 4.699,2.5 10.699,-5.3 27.998,-5.3 c 12.4,0 20.8,3.8 20.8,13.799 0,8.1 -4.601,12.3 -13.2,14.3 l -6.4,1.4 c -4.399,1 -5.699,2.8 -5.699,5.8 0,3.399 2.699,5.399 7.1,5.399 4.799,0 7.399,-1.8 7.799,-6.1 l 9.999,1.201 c -0.799,8.999 -6.999,12.699 -17.199,12.699 -8.999,0 -17.799,-3.4 -17.799,-14.3 0,-6.799 3.3,-11.099 11.599,-13.099 l 6.801,-1.6 c 5.099,-1.2 6.799,-3.3 6.799,-6.2 0,-3.699 -3.6,-5.199 -10.4,-5.199 -10.099,0 -14.299,5.3 -16.699,12.599 l -3.3,9.999 C 4,38.398 -2.7,43.198 -16,43.198 c -14.699,0 -22.499,-9.3 -22.499,-25.099 0,-15.2 7.8,-23.399 21.8,-23.399 C -5.4,-5.3 0,0 0,0" />
    </g>
  </g>
</svg>
