<?xml version="1.0" encoding="UTF-8" standalone="no"?>
<!-- Created with Inkscape (http://www.inkscape.org/) -->

<svg
   xmlns:dc="http://purl.org/dc/elements/1.1/"
   xmlns:cc="http://creativecommons.org/ns#"
   xmlns:rdf="http://www.w3.org/1999/02/22-rdf-syntax-ns#"
   xmlns:svg="http://www.w3.org/2000/svg"
   xmlns="http://www.w3.org/2000/svg"
   xmlns:sodipodi="http://sodipodi.sourceforge.net/DTD/sodipodi-0.dtd"
   xmlns:inkscape="http://www.inkscape.org/namespaces/inkscape"
   width="32px"
   height="32px"
   id="svg5294"
   version="1.1"
   inkscape:version="0.48.1 r9760"
   sodipodi:docname="lastfm_grey.svg">
  <defs
     id="defs5296" />
  <sodipodi:namedview
     id="base"
     pagecolor="#ffffff"
     bordercolor="#666666"
     borderopacity="1.0"
     inkscape:pageopacity="0.0"
     inkscape:pageshadow="2"
     inkscape:zoom="7.9742432"
     inkscape:cx="28.465265"
     inkscape:cy="16"
     inkscape:current-layer="layer1"
     showgrid="true"
     inkscape:grid-bbox="true"
     inkscape:document-units="px"
     inkscape:window-width="718"
     inkscape:window-height="880"
     inkscape:window-x="0"
     inkscape:window-y="18"
     inkscape:window-maximized="0" />
  <metadata
     id="metadata5299">
    <rdf:RDF>
      <cc:Work
         rdf:about="">
        <dc:format>image/svg+xml</dc:format>
        <dc:type
           rdf:resource="http://purl.org/dc/dcmitype/StillImage" />
        <dc:title />
      </cc:Work>
    </rdf:RDF>
  </metadata>
  <g
     id="layer1"
     inkscape:label="Layer 1"
     inkscape:groupmode="layer">
    <path
       d="m 19.268289,20.032397 -0.352499,-0.72394 -3.044343,-6.39915 C 14.863488,10.644962 12.35997,9.1155094 9.5342492,9.1155094 c -3.8238528,0 -6.9251032,2.8598886 -6.9251032,6.3893306 0,3.526806 3.1012504,6.389333 6.9251032,6.389333 2.6668708,0 4.9849298,-1.392745 6.1423218,-3.430501 l 1.230672,2.61857 C 15.159898,23.047117 12.506129,24.299 9.5342492,24.299 4.2680577,24.299 0,20.364344 0,15.50484 0,10.645719 4.2680577,6.7084189 9.5342492,6.7084189 c 3.9736968,0 7.1813928,1.9569422 8.8112398,5.4255871 0.124876,0.26926 1.725646,3.720156 3.121312,6.658213 0.863845,1.817214 1.600777,3.024916 3.992118,3.099312 2.347127,0.0729 3.960595,-1.243578 3.960595,-2.912755 0,-1.628773 -1.230265,-2.020011 -3.303907,-2.656715 -3.731326,-1.133685 -5.656764,-2.27152 -5.656764,-5.000363 0,-2.6620021 1.961873,-4.4369212 5.154012,-4.4369212 2.0761,0 3.576982,0.853094 4.616465,2.5536192 l -2.040071,0.961098 C 27.422022,9.4081842 26.574142,9.0161906 25.498223,9.0161906 c -1.498427,0 -2.567386,0.9610993 -2.567386,2.2390434 0,1.813436 1.759628,2.087606 4.219339,2.830426 C 30.460224,15.08075 32,16.217075 32,19.05317 c 0,2.97922 -2.770859,5.149908 -6.387145,5.144244 -3.334612,-0.01214 -5.111024,-1.515855 -6.344566,-4.165017"
       style="fill:#d7d7d7;fill-opacity:1;fill-rule:nonzero;stroke:none"
       id="path104"
       inkscape:connector-curvature="0" />
  </g>
</svg>
